<svg width="469" height="473" viewBox="0 0 469 473" fill="none" xmlns="http://www.w3.org/2000/svg">
<path d="M453.482 183.002C448.412 120.03 445.878 88.5437 434.079 68.1727C400.297 9.84444 302.08 -4.02839 240.048 1.29149C157.003 8.41165 61.9994 56.5098 20.1804 149.375C-17.8022 233.723 -0.288237 329.199 56.9433 391.656C161.858 506.148 378.273 485.706 431.139 410.579C452.237 380.596 453.758 332.707 455.993 262.36C457.067 228.498 454.971 201.512 453.482 183.002Z" fill="#F4F7FA"/>
<path d="M413.687 38.7715C408.318 34.2961 400.173 31.8587 393.288 31.3665C344.486 27.8823 337.363 130.658 344.844 153.626C352.324 176.595 347.477 184.136 309.041 196.153C270.605 208.17 289.044 231.307 293.729 244.838C298.414 258.369 307.691 269.799 279.672 283.244C251.652 296.688 261.39 305.019 261.39 305.019C261.39 305.019 313.062 358.27 310.207 341.221C307.353 324.173 312.525 298.43 358.853 296.473C378.808 295.63 409.365 286.04 416.131 264.513C417.707 259.5 418.803 251.843 417.605 246.655C415.942 239.457 411.254 233.787 408.651 227.012C402.584 211.226 417.801 199.666 426.558 189.114C431.13 183.605 435.699 177.957 439.2 171.676C446.469 158.636 443.747 144.652 435.832 132.631C432.035 126.868 426.762 120.753 425.105 113.877C423.327 106.492 424.878 96.4019 425.299 88.8048C425.631 82.846 426.195 76.9109 425.862 70.9369C425.246 59.8286 422.663 46.2541 413.687 38.7715Z" fill="url(#paint0_linear_26_386)"/>
<g opacity="0.8">
<g opacity="0.8">
<path opacity="0.8" d="M257.327 334.907C256.992 335.028 256.612 334.885 256.443 334.56C256.259 334.204 256.395 333.764 256.748 333.579C256.965 333.464 278.719 321.936 302.986 302.949C325.346 285.454 354.477 257.868 366.27 225.799C376.122 199.015 385.104 154.737 390.918 104.319C396.132 59.1089 396.955 25.6724 394.74 19.4659C394.604 19.0883 394.8 18.672 395.175 18.5354C395.549 18.3989 395.963 18.5961 396.098 18.9737C398.69 26.2354 397.045 63.7966 392.354 104.488C386.528 155.017 377.515 199.417 367.626 226.304C355.71 258.702 326.369 286.5 303.852 304.114C279.485 323.175 257.636 334.752 257.419 334.866C257.387 334.882 257.357 334.895 257.327 334.907Z" fill="white"/>
</g>
<g opacity="0.8">
<path opacity="0.8" d="M390.839 113.084C390.466 113.218 390.086 113.114 389.949 112.738C389.769 112.241 371.575 62.9273 348.115 51.7936C347.754 51.6233 347.608 51.2121 347.777 50.848C347.948 50.4839 348.381 50.3406 348.741 50.5108C372.738 61.899 390.553 110.178 391.301 112.232C391.438 112.61 391.218 112.947 390.843 113.082C390.841 113.084 390.839 113.084 390.839 113.084Z" fill="white"/>
</g>
<g opacity="0.8">
<path opacity="0.8" d="M381.966 170.272C381.688 170.373 381.364 170.294 381.165 170.049C380.912 169.739 380.956 169.28 381.263 169.026C381.397 168.915 394.792 157.845 411.319 148.556C433.65 136.004 450.764 132.5 462.184 138.142C462.542 138.319 462.69 138.753 462.514 139.114C462.338 139.475 461.907 139.623 461.548 139.446C435.271 126.467 382.707 169.709 382.18 170.147C382.115 170.203 382.041 170.245 381.966 170.272Z" fill="white"/>
</g>
<g opacity="0.8">
<path opacity="0.8" d="M323.65 287.167C323.577 287.193 323.5 287.207 323.418 287.209C323.019 287.215 322.692 286.895 322.685 286.492C322.681 286.282 322.31 265.123 317.915 242.829C313.884 222.389 305.562 196.786 288.805 190.886C288.428 190.753 288.229 190.338 288.361 189.961C288.492 189.581 288.905 189.381 289.28 189.514C303.254 194.433 313.364 212.282 319.334 242.566C323.752 264.987 324.124 286.258 324.127 286.47C324.134 286.791 323.933 287.064 323.65 287.167Z" fill="white"/>
</g>
<g opacity="0.8">
<path opacity="0.8" d="M353.47 252.983C353.178 253.089 352.84 252.995 352.646 252.73C352.408 252.407 352.477 251.951 352.796 251.714C355.12 249.983 409.937 209.381 431.314 213.258C431.708 213.328 431.967 213.708 431.897 214.102C431.826 214.498 431.452 214.761 431.058 214.689C410.287 210.921 354.218 252.462 353.654 252.882C353.598 252.927 353.534 252.959 353.47 252.983Z" fill="white"/>
</g>
</g>
<path d="M456.519 190.148C452.97 184.107 446.124 179.036 439.811 176.226C395.056 156.311 353.838 250.595 353.162 274.759C352.486 298.923 345.392 304.367 305.189 302.572C264.985 300.777 274.565 328.836 274.429 343.166C274.294 357.495 279.184 371.414 248.302 374.514C217.42 377.614 223.785 388.771 223.785 388.771C223.785 388.771 254.524 456.497 257.564 439.48C260.604 422.464 274.116 400.002 318.368 413.956C337.428 419.965 369.404 421.359 383.001 403.409C386.168 399.229 389.771 392.398 390.385 387.107C391.236 379.768 388.73 372.833 388.554 365.571C388.146 348.648 406.349 342.957 418.133 336.014C424.285 332.389 430.482 328.63 435.886 323.914C447.106 314.122 449.242 300.035 445.831 286.026C444.195 279.309 441.285 271.755 442.036 264.721C442.843 257.166 447.691 248.198 450.639 241.193C452.952 235.699 455.476 230.305 457.17 224.571C460.323 213.902 462.453 200.249 456.519 190.148Z" fill="url(#paint1_linear_26_386)"/>
<g opacity="0.8">
<g opacity="0.8">
<path opacity="0.8" d="M209.923 415.508C209.568 415.508 209.258 415.243 209.208 414.879C209.155 414.481 209.431 414.114 209.826 414.06C210.068 414.026 234.41 410.594 263.622 401C290.539 392.16 327.217 376.131 349.086 349.975C367.351 328.129 390.675 289.526 413.078 244.065C433.167 203.299 445.171 172.115 445.171 165.519C445.171 165.118 445.494 164.792 445.893 164.792C446.291 164.792 446.614 165.118 446.614 165.519C446.614 173.236 432.451 208.021 414.37 244.712C391.917 290.273 368.524 328.982 350.188 350.912C328.095 377.337 291.148 393.492 264.044 402.39C234.713 412.02 210.264 415.466 210.02 415.5C209.99 415.506 209.956 415.508 209.923 415.508Z" fill="white"/>
</g>
<g opacity="0.8">
<path opacity="0.8" d="M410.062 252.436C409.666 252.436 409.343 252.132 409.341 251.733C409.338 251.204 408.78 198.559 390.443 180.085C390.161 179.802 390.161 179.345 390.443 179.062C390.724 178.778 391.181 178.78 391.464 179.063C410.221 197.961 410.77 249.535 410.785 251.723C410.788 252.124 410.467 252.436 410.067 252.436C410.064 252.436 410.062 252.436 410.062 252.436Z" fill="white"/>
</g>
<g opacity="0.8">
<path opacity="0.8" d="M382.506 303.077C382.21 303.077 381.932 302.892 381.827 302.595C381.693 302.218 381.887 301.801 382.263 301.665C382.426 301.606 398.748 295.755 417.422 292.648C442.65 288.449 459.932 290.988 468.786 300.19C469.063 300.478 469.055 300.938 468.769 301.218C468.483 301.498 468.026 301.49 467.748 301.201C447.38 280.03 383.394 302.801 382.75 303.034C382.668 303.064 382.586 303.077 382.506 303.077Z" fill="white"/>
</g>
<g opacity="0.8">
<path opacity="0.8" d="M288.37 393.196C288.293 393.196 288.214 393.182 288.135 393.157C287.759 393.027 287.556 392.614 287.687 392.233C287.754 392.033 294.511 371.997 297.863 349.519C300.934 328.91 301.702 301.981 287.914 290.715C287.605 290.463 287.558 290.004 287.809 289.692C288.06 289.38 288.515 289.331 288.825 289.586C300.322 298.978 303.842 319.223 299.286 349.753C295.915 372.358 289.121 392.501 289.052 392.703C288.95 393.005 288.669 393.196 288.37 393.196Z" fill="white"/>
</g>
<g opacity="0.8">
<path opacity="0.8" d="M327.909 371.195C327.598 371.195 327.312 370.991 327.218 370.677C327.103 370.293 327.32 369.886 327.702 369.772C330.469 368.936 395.69 349.416 414.504 360.352C414.848 360.553 414.967 360.998 414.768 361.345C414.569 361.693 414.127 361.812 413.783 361.612C395.501 350.985 328.788 370.962 328.117 371.164C328.048 371.184 327.978 371.195 327.909 371.195Z" fill="white"/>
</g>
</g>
<path d="M306.495 20.2972L305.979 24.0158C304.268 24.095 302.585 24.3175 300.947 24.6883L299.551 21.2193C299.172 20.2736 298.096 19.8236 297.15 20.2163L291.233 22.6723C290.286 23.0651 289.824 24.154 290.202 25.1013L291.604 28.6142C290.17 29.5346 288.815 30.5763 287.554 31.7293L284.582 29.4064C283.779 28.7794 282.615 28.9345 281.981 29.7537L278.005 34.878C277.368 35.699 277.503 36.8755 278.306 37.5043L281.29 39.8406C280.495 41.3442 279.827 42.932 279.289 44.589L275.502 44.0884C274.485 43.9535 273.538 44.6801 273.388 45.7117L272.436 52.1744C272.283 53.2094 272.986 54.1601 274.005 54.295L277.803 54.7973C277.848 56.5419 278.037 58.2579 278.373 59.9284L274.81 61.4252C273.849 61.8281 273.377 62.9423 273.756 63.9115L276.13 69.99C276.509 70.9643 277.599 71.4245 278.562 71.0182L282.128 69.5146C283.025 70.9845 284.047 72.3701 285.181 73.6579L282.805 76.7663C282.163 77.6074 282.3 78.8109 283.113 79.4548L288.206 83.4802C289.021 84.1241 290.204 83.9623 290.845 83.1178L293.192 80.0297C294.691 80.8337 296.277 81.5029 297.932 82.0373L297.398 85.8906C297.253 86.9459 297.967 87.9117 298.994 88.0466L305.424 88.8961C306.453 89.0327 307.402 88.2859 307.545 87.2307L308.064 83.406C309.812 83.3301 311.531 83.1026 313.202 82.7233L314.613 86.2564C315.004 87.2375 316.1 87.701 317.06 87.2914L323.057 84.7309C324.015 84.3213 324.472 83.197 324.079 82.2193L322.669 78.7115C324.132 77.7591 325.511 76.6786 326.789 75.4835L329.721 77.7793C330.54 78.4216 331.715 78.2597 332.344 77.4186L336.271 72.1729C336.898 71.3351 336.743 70.14 335.924 69.5011L333.02 67.2323C333.811 65.6865 334.469 64.0531 334.991 62.3523L338.621 62.8327C339.64 62.9676 340.574 62.2343 340.706 61.196L341.531 54.7164C341.663 53.6831 340.945 52.7357 339.928 52.6009L336.308 52.1222C336.232 50.3556 336.011 48.6228 335.64 46.9388L338.998 45.5229C339.942 45.1251 340.388 44.026 339.997 43.0686L337.544 37.0947C337.152 36.1406 336.072 35.6888 335.128 36.085L331.75 37.5043C330.83 36.0496 329.789 34.6775 328.633 33.4082L330.865 30.4735C331.486 29.6559 331.333 28.4878 330.527 27.8624L325.483 23.9568C324.676 23.3331 323.52 23.4865 322.898 24.3006L320.652 27.2387C319.163 26.4599 317.591 25.8127 315.949 25.3002L316.45 21.6104C316.587 20.5956 315.882 19.6634 314.874 19.5303L308.571 18.6976C307.567 18.5678 306.635 19.2808 306.495 20.2972ZM284.274 50.418C286.096 37.6476 297.729 28.6951 310.269 30.3521C322.809 32.0091 331.616 43.6636 329.931 56.4509C328.237 69.3174 316.578 78.4452 303.901 76.7713C291.224 75.0958 282.442 63.2659 284.274 50.418Z" fill="#D8DEE8"/>
<path d="M209.854 18.2809L209.057 24.0306C206.412 24.152 203.809 24.4958 201.276 25.069L199.119 19.7052C198.53 18.2421 196.869 17.5476 195.408 18.1545L186.258 21.9522C184.794 22.5607 184.08 24.2413 184.665 25.7095L186.833 31.1406C184.617 32.5633 182.52 34.1731 180.571 35.9582L175.97 32.3661C174.73 31.3969 172.928 31.6379 171.948 32.9021L165.801 40.8247C164.816 42.0939 165.025 43.9128 166.266 44.8854L170.879 48.4994C169.651 50.8239 168.617 53.2799 167.784 55.8404L161.929 55.0666C160.358 54.8593 158.894 55.982 158.659 57.5766L157.188 67.5707C156.952 69.1721 158.04 70.6403 159.616 70.8476L165.486 71.623C165.557 74.3201 165.848 76.9749 166.37 79.5573L160.86 81.8717C159.375 82.4954 158.645 84.2165 159.231 85.7167L162.902 95.1141C163.489 96.6194 165.174 97.3324 166.663 96.7037L172.175 94.3792C173.561 96.6514 175.142 98.7939 176.897 100.785L173.225 105.59C172.231 106.892 172.443 108.753 173.701 109.747L181.577 115.971C182.836 116.967 184.665 116.716 185.657 115.411L189.286 110.637C191.603 111.881 194.058 112.916 196.616 113.742L195.79 119.701C195.564 121.333 196.668 122.826 198.259 123.035L208.201 124.348C209.79 124.559 211.259 123.404 211.48 121.773L212.283 115.859C214.987 115.743 217.644 115.391 220.227 114.804L222.407 120.267C223.012 121.784 224.707 122.501 226.191 121.867L235.464 117.909C236.944 117.277 237.652 115.537 237.043 114.024L234.861 108.599C237.125 107.128 239.257 105.456 241.234 103.608L245.765 107.158C247.031 108.151 248.847 107.9 249.82 106.602L255.892 98.4922C256.861 97.1976 256.622 95.3484 255.357 94.3607L250.866 90.8545C252.091 88.4626 253.106 85.9375 253.913 83.3096L259.528 84.0513C261.104 84.2603 262.548 83.1258 262.752 81.5211L264.027 71.5017C264.231 69.902 263.12 68.4389 261.549 68.2315L255.951 67.4915C255.835 64.7608 255.494 62.0806 254.918 59.478L260.112 57.2883C261.572 56.6731 262.263 54.9739 261.654 53.4939L257.861 44.2566C257.256 42.7817 255.584 42.0838 254.127 42.6957L248.905 44.8887C247.483 42.6384 245.872 40.5179 244.087 38.5575L247.537 34.0197C248.497 32.7572 248.263 30.9502 247.013 29.9826L239.213 23.9446C237.967 22.9804 236.178 23.2181 235.216 24.4773L231.743 29.0201C229.439 27.8166 227.008 26.8153 224.471 26.0213L225.246 20.3154C225.459 18.7461 224.368 17.3066 222.81 17.1009L213.064 15.8131C211.51 15.6074 210.071 16.7115 209.854 18.2809ZM175.497 64.8535C178.312 45.1079 196.3 31.2654 215.688 33.8276C235.075 36.3897 248.693 54.4092 246.089 74.1818C243.469 94.0741 225.445 108.19 205.845 105.599C186.243 103.01 172.662 84.7171 175.497 64.8535Z" fill="#D8DEE8"/>
<path d="M200.529 73.9574L157.905 430.899C157.266 436.251 160.927 441.048 166.056 441.561L343.592 461.198C354.467 461.879 360.421 456.281 361.094 450.59L405.844 71.1019C406.512 65.4432 401.176 60.3171 390.254 60.3171L211.104 64.1183C205.916 64.2076 201.165 68.6341 200.529 73.9574Z" fill="url(#paint2_linear_26_386)"/>
<path d="M192.538 73.3452L149.68 432.072C149.038 437.451 152.712 442.273 157.858 442.789L341.912 461.252C347.683 461.83 352.971 457.624 353.646 451.905L398.647 70.456C399.318 64.767 395.08 60.1955 389.246 60.295L203.151 63.4589C197.947 63.5449 193.177 67.995 192.538 73.3452Z" fill="url(#paint3_linear_26_386)"/>
<path d="M196.032 93.1301L156.307 425.741C155.707 430.766 159.148 435.263 163.965 435.735L337.062 452.688C342.426 453.214 347.341 449.288 347.97 443.963L389.558 91.5928C390.184 86.2965 386.249 82.0099 380.83 82.0689L205.956 83.945C201.089 83.9956 196.629 88.1305 196.032 93.1301Z" fill="#D8DEE8"/>
<path d="M288.855 73.0962C288.628 75.0061 289.988 76.5349 291.895 76.5097C293.804 76.4861 295.538 74.915 295.765 73.0018C295.993 71.0886 294.627 69.5598 292.718 69.5884C290.809 69.6171 289.081 71.1881 288.855 73.0962Z" fill="url(#paint4_linear_26_386)"/>
<path d="M225.958 316.4C261.394 250.392 314.332 230.633 330.27 162.604C338.885 125.832 333.016 90.6354 323.13 61.4165L389.249 60.2922C395.083 60.1927 399.321 64.7659 398.65 70.4532L353.648 451.902C352.974 457.623 347.686 461.829 341.915 461.249L197.231 446.736C196.158 387.59 210.16 345.823 225.958 316.4Z" fill="white"/>
<path d="M17.7966 111.199C17.7966 76.1241 48.165 47.6957 84.6083 47.6991C119.974 47.7025 147.885 74.6357 147.885 107.855C147.885 141.074 119.974 169.441 84.6083 171.263C48.1633 173.141 17.7966 146.274 17.7966 111.199Z" fill="url(#paint5_linear_26_386)"/>
<path d="M21.725 108.402C21.725 73.3274 51.2149 44.899 86.6025 44.9024C120.944 44.9058 148.049 71.839 148.049 105.058C148.049 138.277 120.944 166.645 86.6025 168.467C51.2133 170.345 21.725 143.475 21.725 108.402Z" fill="url(#paint6_linear_26_386)"/>
<g opacity="0.5">
<path opacity="0.5" d="M31.8207 108.134C31.8207 78.6657 56.5958 54.7802 86.3284 54.7852C115.181 54.7886 137.953 77.4167 137.953 105.326C137.953 133.235 115.183 157.068 86.3284 158.599C56.5958 160.177 31.8207 137.603 31.8207 108.134Z" fill="white"/>
</g>
<path opacity="0.5" d="M84.2822 59.3129C113.135 59.3162 135.907 81.9443 135.907 109.853C135.907 116.49 134.607 122.89 132.257 128.82C135.897 121.68 137.955 113.688 137.955 105.326C137.955 77.4167 115.184 54.7886 86.3301 54.7852C63.3987 54.7835 43.4286 68.9969 35.4865 89.0156C44.4793 71.4158 63.1209 59.3112 84.2822 59.3129Z" fill="white"/>
<path d="M61.6763 100.922V126.641C61.6763 134.076 67.8851 139.943 75.5211 139.742L94.4555 139.245C102 139.046 108.096 132.922 108.096 125.564V100.116L61.6763 100.922ZM79.1133 127.511L82.6318 116.768C81.1243 115.984 80.1037 114.44 80.1037 112.642C80.1037 110.002 82.3022 107.819 85.0092 107.769C87.713 107.716 89.903 109.81 89.903 112.445C89.903 114.24 88.8858 115.823 87.3834 116.669L90.8885 127.234L79.1133 127.511Z" fill="white"/>
<path d="M102.714 97.8856C100.704 97.9193 99.0748 96.3534 99.0748 94.3862C99.0748 86.8261 92.7756 80.7578 85.0074 80.8589C77.2125 80.9601 70.8497 87.2324 70.8497 94.8397C70.8497 96.8186 69.1984 98.4503 67.1588 98.4857C65.1177 98.5194 63.4613 96.9417 63.4613 94.9593C63.4613 83.3807 73.1535 73.85 85.0091 73.7169C96.8011 73.5837 106.346 82.8042 106.346 94.2716C106.346 96.2337 104.721 97.8519 102.714 97.8856Z" fill="white"/>
<path d="M146.569 244.582C146.569 244.582 145.28 239.717 146.194 238.473C147.106 237.229 152.686 232.256 152.15 233.878C151.613 235.5 150.808 236.58 150.808 236.58C150.808 236.58 153.813 237.986 151.881 240.093C149.95 242.202 149.304 242.687 149.197 244.58C149.092 246.473 147.857 247.122 146.569 244.582Z" fill="url(#paint7_linear_26_386)"/>
<path d="M92.9712 454.574C92.9712 454.574 92.2886 458.781 92.3756 460.278C92.4626 461.775 108.956 462.54 109.122 461.419C109.287 460.298 106.396 458.513 104.36 457.885C102.324 457.254 96.3642 455.575 96.3642 455.575L92.9712 454.574Z" fill="url(#paint8_linear_26_386)"/>
<path d="M96.974 450.38L96.4486 455.612C96.4486 455.612 94.533 456.888 92.8448 455.904L91.9999 450.21L96.974 450.38Z" fill="url(#paint9_linear_26_386)"/>
<path d="M63.5434 461.394C63.5434 461.394 62.8607 465.602 62.9477 467.098C63.0347 468.595 79.5281 469.361 79.6937 468.24C79.861 467.119 76.9683 465.334 74.9321 464.705C72.8959 464.076 66.9364 462.396 66.9364 462.396L63.5434 461.394Z" fill="url(#paint10_linear_26_386)"/>
<path d="M67.5475 457.2L67.0221 462.432C67.0221 462.432 65.1064 463.708 63.4183 462.724L62.5734 457.03L67.5475 457.2Z" fill="url(#paint11_linear_26_386)"/>
<path d="M93.9821 313.799C95.8877 317.693 97.795 321.587 99.7007 325.481C101.233 347.703 101.996 371.868 101.506 397.711C101.141 416.937 100.122 435.15 98.6567 452.246C96.0718 452.126 93.4868 452.007 90.9019 451.887C87.1642 444.413 82.7522 433.09 82.3457 419.113C81.9224 404.534 86.3093 402.597 86.0315 388.638C85.6701 370.545 78.1395 365.717 74.1274 343.954C72.5932 335.63 71.5609 324.759 72.7873 311.571C79.8528 312.314 86.9166 313.058 93.9821 313.799Z" fill="url(#paint12_linear_26_386)"/>
<path opacity="0.3" d="M72.7887 311.571C76.6033 311.972 80.418 312.373 84.2343 312.774C91.1024 324.815 93.0197 337.346 91.8134 342.89C90.1085 350.733 85.5979 353.245 85.8472 361.119C86.0931 368.91 90.649 370.931 93.5384 380.112C95.5394 386.471 95.0107 392.316 93.873 403.749C91.5809 426.776 86.0613 433.819 90.6841 441.369C91.9975 443.514 94.3649 446.068 99.0027 448.019C98.8889 449.431 98.7768 450.847 98.6581 452.244C96.0731 452.126 93.4882 452.005 90.9033 451.887C87.1656 444.413 82.7536 433.09 82.347 419.113C81.9238 404.534 86.3106 402.597 86.0329 388.638C85.6715 370.545 78.1409 365.719 74.1288 343.955C72.5946 335.632 71.5606 324.761 72.7887 311.571Z" fill="url(#paint13_linear_26_386)"/>
<path d="M83.7237 320.81C80.1449 340.471 76.9844 361.513 74.5183 383.829C71.5402 410.774 69.9508 436.177 69.3267 459.761C66.4891 459.842 63.6532 459.922 60.8157 460.003C49.636 437.721 48.9534 422.614 50.5646 412.778C51.1853 408.989 52.8735 401.557 53.2583 390.449C53.526 382.707 53.0358 376.814 52.4234 369.73C51.0816 354.201 49.452 350.811 49.2178 338.932C48.9969 327.783 48.9518 322.143 52.1106 318.851C60.4325 310.175 82.0824 320.041 83.7237 320.81Z" fill="url(#paint14_linear_26_386)"/>
<path d="M145.085 243.832C146.972 243.699 148.858 243.567 150.745 243.434C155.196 261.556 152.003 279.134 141.958 285.599C126.263 295.699 97.0925 276.67 90.7716 255.948C87.9976 246.853 88.6283 233.728 94.1746 231.178C95.7139 230.47 98.1031 230.36 103.278 233.286C118.732 242.028 119.139 258.551 126.996 259.95C130.486 260.574 136.127 258.33 145.085 243.832Z" fill="url(#paint15_linear_26_386)"/>
<path d="M101.872 329.467C104.591 324.923 101.176 320.54 100.4 311.932C99.5197 302.173 103.251 300.548 106.94 284.378C109.394 273.624 111.748 263.299 108.938 251.213C107.591 245.421 105.305 235.597 97.2343 230.852C93.07 228.403 87.3831 228.649 76.1817 229.239C62.3285 229.969 55.4036 230.333 50.2371 233.074C49.4808 233.475 33.7671 242.087 32.6846 256.125C31.5837 270.413 47.0264 272.332 49.086 291.385C50.0112 299.938 48.3632 313.093 47.2941 321.624C46.2685 329.816 45.5608 331.913 47.1669 334.394C51.0351 340.373 62.8756 338.669 86.5566 335.263C95.8456 333.924 99.8426 332.859 101.872 329.467Z" fill="url(#paint16_linear_26_386)"/>
<path d="M65.8396 288.319C64.8374 292.033 61.2369 294.806 58.7306 303.839C58.1902 305.789 54.3337 319.677 59.3346 323.096C62.2223 325.07 64.8156 321.329 71.8259 320.84C83.9726 319.994 89.7598 330.28 97.6953 327.47C99.0723 326.981 100.889 325.943 102.705 323.556C103.066 325.707 103.004 327.576 101.873 329.469C99.8452 332.861 95.8465 333.926 86.5575 335.263C62.8765 338.669 51.036 340.374 47.1678 334.395C45.5633 331.915 46.2694 329.816 47.295 321.624C48.3641 313.091 50.0121 299.937 49.0869 291.385C47.0273 272.333 31.583 270.413 32.6855 256.125C32.98 252.305 34.3737 248.906 36.2392 245.944C55.8295 253.93 68.9867 276.65 65.8396 288.319Z" fill="url(#paint17_linear_26_386)"/>
<path d="M41.0972 316.422L45.0172 318.944C45.7216 318.124 47.3512 316.473 49.8943 315.91C52.7603 315.274 56.0513 316.186 56.1266 317.106C56.1885 317.845 54.1841 318.59 53.8746 318.704C51.3733 319.635 49.5178 318.861 48.5073 319.874C48.1493 320.232 47.7042 320.899 46.6786 321.516C46.4092 321.678 46.1282 321.821 45.9793 321.88C44.3095 322.534 41.4468 319.606 41.2009 319.35L41.0972 316.422Z" fill="url(#paint18_linear_26_386)"/>
<path d="M52.6767 264.629C55.5126 257.787 57.4768 247.311 52.9979 231.754C23.4879 243.469 8.43842 271.242 14.3143 293.256C19.1579 311.405 36.7823 320.245 40.7141 322.106C41.6293 320.007 42.5445 317.91 43.458 315.813C38.9021 310.703 33.7674 303.144 34.4935 294.519C35.5007 282.561 46.9363 278.48 52.6767 264.629Z" fill="url(#paint19_linear_26_386)"/>
<path d="M75.4553 215.164C75.4553 215.164 75.2227 220.364 73.6199 224.259C72.171 227.779 64.5551 229.992 63.0108 230.778C61.4665 231.563 65.9036 233.861 70.359 234.311C74.8145 234.763 87.5367 233.743 89.8305 232.042C92.1243 230.341 87.9867 230.469 84.8079 229.293C81.6273 228.116 79.7886 221.851 80.3507 219.007C80.9129 216.162 75.4553 215.164 75.4553 215.164Z" fill="url(#paint20_linear_26_386)"/>
<path d="M82.5023 213.278C84.8145 210.989 85.1374 210.722 85.3884 209.932C86.3989 206.758 83.9545 202.409 80.7489 201.338C80.5816 201.283 78.4317 200.59 77.6118 201.529C76.9142 202.326 77.9398 203.428 77.4529 204.967C76.9961 206.407 75.758 206.515 73.4609 208.403C71.5686 209.957 70.3941 210.924 70.1231 212.285C69.5643 215.088 72.9322 219.15 75.9136 219.041C76.9861 219 77.2789 218.449 82.5023 213.278Z" fill="url(#paint21_linear_26_386)"/>
<path d="M76.2071 219.474C76.2071 219.474 78.6649 222.277 82.4076 221.35C85.7588 220.521 84.9038 212.77 82.4511 211.533C81.6329 211.12 80.1455 211.154 79.0279 211.696C78.367 212.017 78.183 212.351 77.0938 212.853C76.09 213.316 75.7704 213.252 75.501 213.579C75.1631 213.987 75.0175 214.867 76.0766 216.988C75.3136 216.443 74.4922 216.329 73.9886 216.689C73.9082 216.747 73.7041 216.949 73.6154 217.214C73.2959 218.173 74.2864 219.149 76.2071 219.474Z" fill="url(#paint22_linear_26_386)"/>
<path d="M356.494 114.534L357.359 119.239L339.552 119.281L185.025 119.65C181.05 119.66 177.394 122.971 176.848 127.045L139.96 375.43C139.411 379.541 145.762 385.817 149.714 386.123L218.269 391.432V391.347L320.817 399.273C320.818 399.273 320.82 399.273 320.822 399.273L321.069 399.378C325.448 399.718 329.465 396.517 330.034 392.175C330.034 392.173 330.034 392.193 330.035 392.192L364.581 126.998C365.144 122.696 360.897 114.523 356.494 114.534Z" fill="url(#paint23_linear_26_386)"/>
<path d="M326.54 387.008C325.975 391.352 321.959 394.598 317.581 394.259L146.048 380.99C142.098 380.685 139.349 377.105 139.898 372.993L173.432 121.967C173.976 117.893 177.631 114.583 181.603 114.571L354.104 114.092C358.506 114.08 361.628 117.558 361.069 121.86L326.54 387.008Z" fill="url(#paint24_linear_26_386)"/>
<path d="M328.819 248.957C328.538 251.108 326.543 252.713 324.365 252.632L173.397 247.081C171.404 247.008 170.002 245.355 170.276 243.3L173.245 221.135C173.519 219.082 175.338 217.693 177.332 217.749L328.432 221.977C330.614 222.037 332.158 223.59 331.879 225.739L328.819 248.957Z" fill="white"/>
<path d="M322.973 293.993C322.692 296.149 320.696 297.988 318.518 297.878L167.663 290.37C165.672 290.271 164.287 288.351 164.561 286.294L167.553 263.702C167.827 261.647 169.663 259.885 171.655 259.966L322.602 266.1C324.78 266.19 326.321 268.175 326.04 270.328L322.973 293.993Z" fill="white"/>
<path opacity="0.1" d="M331.891 225.65C331.533 225.533 331.148 225.469 330.739 225.458L179.635 221.232C177.642 221.174 175.822 222.567 175.551 224.615L172.578 246.779C172.571 246.837 172.566 246.891 172.561 246.948C171.028 246.513 170.043 245.05 170.274 243.297L173.247 221.132C173.518 219.084 175.338 217.69 177.331 217.749L328.435 221.975C330.578 222.039 332.115 223.543 331.891 225.65Z" fill="url(#paint25_linear_26_386)"/>
<path opacity="0.1" d="M326.072 269.829C325.709 269.684 325.318 269.596 324.903 269.579L173.96 263.444C171.967 263.363 170.128 265.128 169.857 267.182L166.861 289.777C166.844 289.922 166.832 290.062 166.832 290.207C165.3 289.708 164.326 288.047 164.557 286.294L167.553 263.7C167.825 261.645 169.662 259.88 171.656 259.961L322.599 266.097C324.615 266.184 326.077 267.879 326.072 269.829Z" fill="url(#paint26_linear_26_386)"/>
<path d="M282.853 330.496C283.298 327.096 280.912 323.964 277.521 323.766L199.429 319.249C196.195 319.062 193.208 321.806 192.768 325.117L189.546 349.589C189.106 352.904 191.35 356.077 194.582 356.299L272.633 361.68C276.023 361.914 279.145 359.03 279.592 355.625L282.853 330.496Z" fill="url(#paint27_linear_26_386)"/>
<path d="M288.751 165.617C287.722 173.441 283.733 180.502 278.061 185.695C271.949 191.297 263.898 194.705 255.526 194.541C247.196 194.38 240.184 190.713 235.682 184.987C231.529 179.709 229.495 172.677 230.513 164.985C232.633 148.984 247.226 136.048 263.239 136.087C279.405 136.122 290.889 149.343 288.751 165.617Z" fill="url(#paint28_linear_26_386)"/>
<path d="M273.179 156.726C272.255 163.735 265.834 169.351 258.862 169.267C251.919 169.183 247.057 163.473 247.976 156.515C248.896 149.558 255.252 143.947 262.199 143.979C269.175 144.011 274.103 149.717 273.179 156.726Z" fill="white"/>
<path d="M278.062 185.695C271.951 191.297 263.9 194.705 255.528 194.542C247.197 194.38 240.185 190.714 235.683 184.987C240.836 177.754 249.335 172.944 258.362 173.062C267.437 173.18 274.751 178.247 278.062 185.695Z" fill="white"/>
<path opacity="0.4" d="M361.068 121.858L326.54 387.006C325.975 391.348 321.703 394.576 317.326 394.238L214.302 386.268C209.409 381.219 205.378 375.161 202.502 367.891C201.09 364.326 200.056 360.479 199.368 356.434C197.456 345.238 198.197 332.511 200.986 320.019C203.131 310.402 206.494 300.909 210.799 292.342C214.242 285.493 218.291 279.231 222.813 273.969C226.069 270.181 229.591 266.501 233.305 262.892C237.784 258.537 242.544 254.285 247.455 250.073C258.897 240.251 271.149 230.648 282.493 220.507C308.667 197.114 329.901 170.974 324.792 133.678C324.628 132.503 323.033 123.507 320.996 114.182L353.848 114.091C358.249 114.079 361.628 117.558 361.068 121.858Z" fill="white"/>
<defs>
<linearGradient id="paint0_linear_26_386" x1="313.706" y1="340.68" x2="437.522" y2="8.76846" gradientUnits="userSpaceOnUse">
<stop offset="0.00359712" stop-color="#E38DDD"/>
<stop offset="1" stop-color="#9571F6"/>
</linearGradient>
<linearGradient id="paint1_linear_26_386" x1="223.243" y1="307.853" x2="460.274" y2="307.853" gradientUnits="userSpaceOnUse">
<stop stop-color="#FF9085"/>
<stop offset="1" stop-color="#FB6FBB"/>
</linearGradient>
<linearGradient id="paint2_linear_26_386" x1="284.071" y1="251.555" x2="354.049" y2="259.132" gradientUnits="userSpaceOnUse">
<stop stop-color="#444B8C"/>
<stop offset="0.9964" stop-color="#26264F"/>
</linearGradient>
<linearGradient id="paint3_linear_26_386" x1="222.425" y1="73.8716" x2="397.824" y2="666.559" gradientUnits="userSpaceOnUse">
<stop stop-color="#444B8C"/>
<stop offset="0.9964" stop-color="#26264F"/>
</linearGradient>
<linearGradient id="paint4_linear_26_386" x1="287.254" y1="59.2545" x2="493.27" y2="613.062" gradientUnits="userSpaceOnUse">
<stop stop-color="#FFC444"/>
<stop offset="0.9964" stop-color="#F36F56"/>
</linearGradient>
<linearGradient id="paint5_linear_26_386" x1="-1489.15" y1="1602.93" x2="-1349.1" y2="1471.85" gradientUnits="userSpaceOnUse">
<stop stop-color="#311944"/>
<stop offset="1" stop-color="#893976"/>
</linearGradient>
<linearGradient id="paint6_linear_26_386" x1="42.6175" y1="145.333" x2="154.816" y2="44.2738" gradientUnits="userSpaceOnUse">
<stop stop-color="#FF9085"/>
<stop offset="1" stop-color="#FB6FBB"/>
</linearGradient>
<linearGradient id="paint7_linear_26_386" x1="155.533" y1="233.932" x2="133.28" y2="256.414" gradientUnits="userSpaceOnUse">
<stop stop-color="#FFC444"/>
<stop offset="0.9964" stop-color="#F36F56"/>
</linearGradient>
<linearGradient id="paint8_linear_26_386" x1="100.791" y1="449.06" x2="100.98" y2="398.816" gradientUnits="userSpaceOnUse">
<stop stop-color="#AA80F9"/>
<stop offset="0.9964" stop-color="#6165D7"/>
</linearGradient>
<linearGradient id="paint9_linear_26_386" x1="95.8512" y1="465.205" x2="93.4412" y2="439.246" gradientUnits="userSpaceOnUse">
<stop stop-color="#FFC444"/>
<stop offset="0.9964" stop-color="#F36F56"/>
</linearGradient>
<linearGradient id="paint10_linear_26_386" x1="71.3899" y1="448.949" x2="71.5788" y2="398.706" gradientUnits="userSpaceOnUse">
<stop stop-color="#AA80F9"/>
<stop offset="0.9964" stop-color="#6165D7"/>
</linearGradient>
<linearGradient id="paint11_linear_26_386" x1="66.0535" y1="467.971" x2="63.6435" y2="442.012" gradientUnits="userSpaceOnUse">
<stop stop-color="#FFC444"/>
<stop offset="0.9964" stop-color="#F36F56"/>
</linearGradient>
<linearGradient id="paint12_linear_26_386" x1="94.9495" y1="334.387" x2="76.4054" y2="428.488" gradientUnits="userSpaceOnUse">
<stop stop-color="#311944"/>
<stop offset="1" stop-color="#893976"/>
</linearGradient>
<linearGradient id="paint13_linear_26_386" x1="104.071" y1="380.427" x2="76.6065" y2="382.612" gradientUnits="userSpaceOnUse">
<stop stop-color="#311944"/>
<stop offset="1" stop-color="#893976"/>
</linearGradient>
<linearGradient id="paint14_linear_26_386" x1="88.8814" y1="385.632" x2="47.1871" y2="388.949" gradientUnits="userSpaceOnUse">
<stop stop-color="#311944"/>
<stop offset="1" stop-color="#893976"/>
</linearGradient>
<linearGradient id="paint15_linear_26_386" x1="121.812" y1="246.997" x2="90.5145" y2="446.502" gradientUnits="userSpaceOnUse">
<stop stop-color="#AA80F9"/>
<stop offset="0.9964" stop-color="#6165D7"/>
</linearGradient>
<linearGradient id="paint16_linear_26_386" x1="56.2109" y1="466.061" x2="41.0693" y2="667.464" gradientUnits="userSpaceOnUse">
<stop stop-color="#AA80F9"/>
<stop offset="0.9964" stop-color="#6165D7"/>
</linearGradient>
<linearGradient id="paint17_linear_26_386" x1="5.49054" y1="397.383" x2="88.748" y2="255.832" gradientUnits="userSpaceOnUse">
<stop stop-color="#AA80F9"/>
<stop offset="0.9964" stop-color="#6165D7"/>
</linearGradient>
<linearGradient id="paint18_linear_26_386" x1="34.6785" y1="299.137" x2="52.2119" y2="322.646" gradientUnits="userSpaceOnUse">
<stop stop-color="#FFC444"/>
<stop offset="0.9964" stop-color="#F36F56"/>
</linearGradient>
<linearGradient id="paint19_linear_26_386" x1="19.7625" y1="463.32" x2="4.6208" y2="664.724" gradientUnits="userSpaceOnUse">
<stop stop-color="#AA80F9"/>
<stop offset="0.9964" stop-color="#6165D7"/>
</linearGradient>
<linearGradient id="paint20_linear_26_386" x1="83.9922" y1="240.243" x2="67.1228" y2="219.41" gradientUnits="userSpaceOnUse">
<stop stop-color="#FFC444"/>
<stop offset="0.9964" stop-color="#F36F56"/>
</linearGradient>
<linearGradient id="paint21_linear_26_386" x1="71.2805" y1="232.547" x2="80.263" y2="203.217" gradientUnits="userSpaceOnUse">
<stop stop-color="#444B8C"/>
<stop offset="0.9964" stop-color="#3E4177"/>
</linearGradient>
<linearGradient id="paint22_linear_26_386" x1="93.8776" y1="222.299" x2="68.8938" y2="211.261" gradientUnits="userSpaceOnUse">
<stop stop-color="#FFC444"/>
<stop offset="0.9964" stop-color="#F36F56"/>
</linearGradient>
<linearGradient id="paint23_linear_26_386" x1="139.927" y1="256.969" x2="364.632" y2="256.969" gradientUnits="userSpaceOnUse">
<stop stop-color="#311944"/>
<stop offset="1" stop-color="#893976"/>
</linearGradient>
<linearGradient id="paint24_linear_26_386" x1="276.541" y1="702.239" x2="249.345" y2="234.68" gradientUnits="userSpaceOnUse">
<stop offset="0.003597" stop-color="#F36F56"/>
<stop offset="1" stop-color="#FFC444"/>
</linearGradient>
<linearGradient id="paint25_linear_26_386" x1="170.24" y1="232.349" x2="331.912" y2="232.349" gradientUnits="userSpaceOnUse">
<stop offset="0.003597" stop-color="#F36F56"/>
<stop offset="1" stop-color="#FFC444"/>
</linearGradient>
<linearGradient id="paint26_linear_26_386" x1="164.525" y1="275.083" x2="326.072" y2="275.083" gradientUnits="userSpaceOnUse">
<stop offset="0.003597" stop-color="#F36F56"/>
<stop offset="1" stop-color="#FFC444"/>
</linearGradient>
<linearGradient id="paint27_linear_26_386" x1="243.929" y1="290.862" x2="207.286" y2="521.505" gradientUnits="userSpaceOnUse">
<stop offset="0.003597" stop-color="#F36F56"/>
<stop offset="1" stop-color="#FFC444"/>
</linearGradient>
<linearGradient id="paint28_linear_26_386" x1="255.808" y1="50.6317" x2="263.637" y2="282.013" gradientUnits="userSpaceOnUse">
<stop offset="0.003597" stop-color="#F36F56"/>
<stop offset="1" stop-color="#FFC444"/>
</linearGradient>
</defs>
</svg>
